<?xml version="1.0" encoding="UTF-8"?>
<svg viewBox="0 0 4231.6006 2377.1428" xmlns="http://www.w3.org/2000/svg" xmlns:xlink="http://www.w3.org/1999/xlink">
 <defs>
  <filter id="h" x="-.06109" y="-1.008" width="1.1222" height="3.016">
   <feGaussianBlur stdDeviation="3.15"/>
  </filter>
  <filter id="v" x="-.08275" y="-.20007" width="1.1655" height="1.4002">
   <feGaussianBlur stdDeviation="4.18903"/>
  </filter>
  <filter id="u" x="-.07918" y="-.79378" width="1.1584" height="2.5876">
   <feGaussianBlur stdDeviation="1.04391"/>
  </filter>
  <filter id="e" x="-.09824" y="-.14484" width="1.1965" height="1.2897">
   <feGaussianBlur stdDeviation=".44131"/>
  </filter>
  <linearGradient id="f">
   <stop stop-color="#b26531" offset="0"/>
   <stop stop-color="#9e592b" offset="1"/>
  </linearGradient>
  <linearGradient id="t" x1="103.24" x2="106.07" y1="344.18" y2="470.05" gradientTransform="matrix(.46713 0 0 .42171 378.5 344.48)" gradientUnits="userSpaceOnUse">
   <stop stop-color="#f9f9f9" offset="0"/>
   <stop stop-color="#e9ddaf" offset="1"/>
  </linearGradient>
  <linearGradient id="s" x1="497.77" x2="532.36" y1="803.83" y2="805.03" gradientUnits="userSpaceOnUse">
   <stop stop-color="#450" offset="0"/>
   <stop stop-color="#aad400" offset="1"/>
  </linearGradient>
  <linearGradient id="r" x1="-567.53" x2="-532.94" y1="169.74" y2="170.94" gradientUnits="userSpaceOnUse">
   <stop stop-color="#aad400" offset="0"/>
   <stop stop-color="#450" offset="1"/>
  </linearGradient>
  <linearGradient id="q" x2="0" y1="540.44" y2="544.9" gradientUnits="userSpaceOnUse">
   <stop stop-color="#c0b897" offset="0"/>
   <stop stop-color="#98927b" offset="1"/>
  </linearGradient>
  <linearGradient id="d" x2="0" y1="436.48" y2="475.01" gradientUnits="userSpaceOnUse">
   <stop stop-color="#c87137" offset="0"/>
   <stop stop-color="#784421" offset="1"/>
  </linearGradient>
  <linearGradient id="p" x2="0" y1="424.5" y2="430.51" gradientUnits="userSpaceOnUse">
   <stop stop-color="#2b1100" offset="0"/>
   <stop stop-color="#803300" offset="1"/>
  </linearGradient>
  <linearGradient id="g" x2="0" y1="424.5" y2="430.51" gradientUnits="userSpaceOnUse">
   <stop stop-color="#7e5133" offset="0"/>
   <stop stop-color="#b7ac82" offset="1"/>
  </linearGradient>
  <linearGradient id="a" x1="408.3" x2="408.88" y1="541.58" y2="548.97" gradientUnits="userSpaceOnUse">
   <stop stop-color="#aad400" offset="0"/>
   <stop stop-color="#668000" offset="1"/>
  </linearGradient>
  <linearGradient id="o" x1="25.254" x2="170.13" gradientUnits="userSpaceOnUse">
   <stop stop-color="#450" offset="0"/>
   <stop stop-color="#8a0" offset="1"/>
  </linearGradient>
  <linearGradient id="n" x1="23.234" x2="230.13" gradientUnits="userSpaceOnUse">
   <stop stop-color="#8a0" offset="0"/>
   <stop stop-color="#aad400" offset="1"/>
  </linearGradient>
  <linearGradient id="m" x1="23.234" x2="279.62" y1="369.5" y2="366.33" gradientUnits="userSpaceOnUse">
   <stop stop-color="#aad400" offset="0"/>
   <stop stop-color="#d4ff2a" offset="1"/>
  </linearGradient>
  <linearGradient id="l" x1="25" x2="329.34" gradientUnits="userSpaceOnUse">
   <stop stop-color="#d4aa00" offset="0"/>
   <stop stop-color="#ffd42a" offset="1"/>
  </linearGradient>
  <linearGradient id="k" x1="28.284" x2="379.34" y1="519" y2="520.33" gradientUnits="userSpaceOnUse">
   <stop stop-color="#d45500" offset="0"/>
   <stop stop-color="#fc0" offset="1"/>
  </linearGradient>
  <linearGradient id="j" x1="22.223" x2="429.34" y1="597.79" y2="598.33" gradientUnits="userSpaceOnUse">
   <stop stop-color="#a40" offset="0"/>
   <stop stop-color="#f60" offset="1"/>
  </linearGradient>
  <linearGradient id="i" x1="26.264" x2="479.34" y1="676.59" y2="676.33" gradientUnits="userSpaceOnUse">
   <stop stop-color="#a00" offset="0"/>
   <stop stop-color="#f00" offset="1"/>
  </linearGradient>
  <linearGradient id="c" x2="0" y1="432.5" y2="444.89" gradientUnits="userSpaceOnUse" xlink:href="#f"/>
  <linearGradient id="b" x2="0" y1="458.11" y2="470.5" gradientUnits="userSpaceOnUse" xlink:href="#f"/>
 </defs>
 <g transform="matrix(2.506 0 0 2.506 1825.8 -9.4997)">
  <path d="m-728.57 3.7908h1688.6v948.57h-1688.6z" fill="#fff"/>
  <g transform="matrix(11.814 0 0 11.814 -4561.5 -5659.7)">
   <path transform="matrix(.46713 0 0 .30708 379.8 400.88)" d="m47.25 462.75h116.25a3.75 3.75 0 0 1 3.75 3.75 3.75 3.75 0 0 1 -3.75 3.75h-116.25a3.75 3.75 0 0 1 -3.75 -3.75 3.75 3.75 0 0 1 3.75 -3.75" filter="url(#h)" opacity=".39431"/>
   <path d="m424.58 492.31-20.975 14.91v37.424h48.721v-42.642l-24.608-12.077-3.1379 2.3856z" fill="url(#t)"/>
   <path transform="matrix(.38961 0 0 .38961 387.02 355.81)" d="m105.41 360.17 0.0313 7.7188 57.062 42.531 3.6562-5.25-60.75-45zl-60.75 45 3.6562 5.25 57.062-42.531 0.0313-7.7188z" fill="#502" filter="url(#v)" opacity=".26446"/>
   <path transform="matrix(.80356,-.59523,0,1,0,0)" d="m497.33 799.83h35.315v10.978h-35.315z" fill="url(#s)"/>
   <path transform="matrix(-.80356,-.59523,0,1,0,0)" d="m-567.96 165.74h35.315v10.978h-35.315z" fill="url(#r)"/>
   <path d="m428.01 493.76 0.0146 3.6056 26.655 19.868 1.7079-2.4524-28.378-21.021zl-28.378 21.021 1.7079 2.4524 26.834-19.868-0.16397-3.6056z" fill="#222b00"/>
   <path d="m403.61 540.74h48.721v3.9706h-48.721z" fill="url(#q)"/>
   <g transform="matrix(.46713 0 0 .46713 390.5 323.01)">
    <path d="m94.139 436.73h23.5v37.75h-23.5z" fill="url(#d)" stroke="#88522e" stroke-width=".3"/>
    <path transform="translate(0 7.6015)" d="m96.125 432.88h19.619v12.125h-19.619z" fill="url(#c)" stroke="#c98051" stroke-linecap="round" stroke-width=".2"/>
    <path d="m96.125 458.48h19.619v12.125h-19.619z" fill="url(#b)" stroke="#c98051" stroke-linecap="round" stroke-width=".2"/>
   </g>
   <g transform="matrix(.46713 0 0 .46713 390.5 323.01)">
    <path d="m90.375 438.11 1.5156 3 28.563 0.125 1.5625-3.1562-31.641 0.0313z" fill="#2b1100" filter="url(#u)"/>
    <path transform="translate(0 7.6015)" d="m92.875 424.63h26.875l2.25 5.875h-31.625l2.5-5.875z" fill="url(#p)"/>
    <path d="m90.375 438.11 1.5156 3 28.563 0.125 1.5625-3.1562-31.641 0.0313z" fill="#2b1100"/>
   </g>
   <g transform="matrix(.41437 0 0 .41437 395.92 365.6)">
    <path transform="translate(0 7.6015)" d="m92.875 424.63h26.875l2.25 5.875h-31.625l2.5-5.875z" fill="url(#g)"/>
    <path d="m90.375 438.11 1.5156 3 28.563 0.125 1.5625-3.1562-31.641 0.0313z" fill="#2b1100"/>
   </g>
   <path d="m445.47 500.58v-9.7441h4.0463v10.322l-4.0463-0.57804z" fill="#7f9f00"/>
   <path d="m445.47 490.89 0.43793-0.73719 3.2115-0.0292 0.40874 0.72988-4.0582 0.0365v1e-5z" fill="#222b00"/>
   <path d="m410.59 525.69h13.414v8.7273h-13.414z" fill="#220b28"/>
   <path transform="rotate(90)" d="m529.36-424.08h0.71098v13.235h-0.71098z" fill="#a35c2d"/>
   <g transform="matrix(.21329 0 0 .21329 385.72 432.52)">
    <path d="m94.139 436.73h23.5v37.75h-23.5z" fill="url(#d)" stroke="#88522e" stroke-width=".3"/>
    <path transform="translate(0 7.6015)" d="m96.125 432.88h19.619v12.125h-19.619z" fill="url(#c)" stroke="#c98051" stroke-linecap="round" stroke-width=".2"/>
    <path d="m96.125 458.48h19.619v12.125h-19.619z" fill="url(#b)" stroke="#c98051" stroke-linecap="round" stroke-width=".2"/>
   </g>
   <g transform="matrix(.50122 0 0 .34689 364.04 383.81)">
    <path transform="translate(0 7.6015)" d="m92.875 424.63h26.875l2.25 5.875h-31.625l2.5-5.875z" fill="url(#g)"/>
    <path d="m90.375 438.11 1.5156 3 28.563 0.125 1.5625-3.1562-31.641 0.0313z" fill="#2b1100"/>
   </g>
   <g transform="matrix(.21329 0 0 .21329 403.88 432.52)">
    <path d="m94.139 436.73h23.5v37.75h-23.5z" fill="url(#d)" stroke="#88522e" stroke-width=".3"/>
    <path transform="translate(0 7.6015)" d="m96.125 432.88h19.619v12.125h-19.619z" fill="url(#c)" stroke="#c98051" stroke-linecap="round" stroke-width=".2"/>
    <path d="m96.125 458.48h19.619v12.125h-19.619z" fill="url(#b)" stroke="#c98051" stroke-linecap="round" stroke-width=".2"/>
   </g>
   <path d="m416.83 525.66h0.71098v8.0942h-0.71098z" fill="#a35c2d"/>
   <path transform="matrix(.12157 0 0 .07992 426.86 511.23)" d="m47.25 462.75h116.25a3.75 3.75 0 0 1 3.75 3.75 3.75 3.75 0 0 1 -3.75 3.75h-116.25a3.75 3.75 0 0 1 -3.75 -3.75 3.75 3.75 0 0 1 3.75 -3.75" filter="url(#h)" opacity=".39431"/>
   <g transform="matrix(.97311 0 0 .97311 23.968 14.663)">
    <path d="m408.08928,541.61218c-1.35606,0-2.46875,1.11269-2.46875,2.46875 0,.38595.0913.73757.25,1.0625-.0777-.0116-.16906-.0313-.25-.0313-.8876,0-1.59375.70615-1.59375,1.59375 0,.77665.5489,1.44389 1.28125,1.59375 .94559.37313 2.47107.625 4.21875.625 2.87854,0 5.21875-.65512 5.21875-1.46875 0-.0719-.0273-.14961-.0625-.21875 .0903-.18736.125-.4031.125-.625 0-.78898-.61727-1.40625-1.40625-1.40625-.1636,0-.32237.0119-.46875.0625 .10982-.24503.1875-.49536.1875-.78125 0-1.08485-.8839-1.96875-1.96875-1.96875-.35845,0-.67947.11354-.96875.28125-.43099-.70719-1.205-1.1875-2.09375-1.1875v5e-005zm1.67857,4.57589c.0563.0589-.23284-.14081-.16964-.0893-.11404-.003-.0604-.0108-.17641-.0112 .0587-.0462.29176.15174.34598.10044l7e-005,2e-005z" fill="#28220b" filter="url(#e)" opacity=".3719"/>
    <path d="m407.55357,541.65682c-1.35606,0-2.46875,1.11269-2.46875,2.46875 0,.38595.0913.73757.25,1.0625-.0777-.0116-.16906-.0313-.25-.0313-.8876,0-1.59375.70615-1.59375,1.59375 0,.77665.5489,1.44389 1.28125,1.59375 .94559.37313 2.47107.625 4.21875.625 2.87854,0 5.21875-.65512 5.21875-1.46875 0-.0719-.0273-.14961-.0625-.21875 .0903-.18736.125-.4031.125-.625 0-.78898-.61727-1.40625-1.40625-1.40625-.1636,0-.32237.0119-.46875.0625 .10982-.24503.1875-.49536.1875-.78125 0-1.08485-.8839-1.96875-1.96875-1.96875-.35845,0-.67947.11354-.96875.28125-.43099-.70719-1.205-1.1875-2.09375-1.1875v5e-005zm1.67857,4.57589c.0563.0589-.23284-.14081-.16964-.0893-.11404-.003-.0604-.0108-.17641-.0112 .0587-.0462.29176.15174.34598.10044l7e-005,2e-005z" fill="url(#a)"/>
   </g>
   <g transform="matrix(.7455 0 0 .7455 110.64 139.34)">
    <path d="m408.08928,541.61218c-1.35606,0-2.46875,1.11269-2.46875,2.46875 0,.38595.0913.73757.25,1.0625-.0777-.0116-.16906-.0313-.25-.0313-.8876,0-1.59375.70615-1.59375,1.59375 0,.77665.5489,1.44389 1.28125,1.59375 .94559.37313 2.47107.625 4.21875.625 2.87854,0 5.21875-.65512 5.21875-1.46875 0-.0719-.0273-.14961-.0625-.21875 .0903-.18736.125-.4031.125-.625 0-.78898-.61727-1.40625-1.40625-1.40625-.1636,0-.32237.0119-.46875.0625 .10982-.24503.1875-.49536.1875-.78125 0-1.08485-.8839-1.96875-1.96875-1.96875-.35845,0-.67947.11354-.96875.28125-.43099-.70719-1.205-1.1875-2.09375-1.1875v5e-005zm1.67857,4.57589c.0563.0589-.23284-.14081-.16964-.0893-.11404-.003-.0604-.0108-.17641-.0112 .0587-.0462.29176.15174.34598.10044l7e-005,2e-005z" fill="#28220b" filter="url(#e)" opacity=".3719"/>
    <path d="m407.55357,541.65682c-1.35606,0-2.46875,1.11269-2.46875,2.46875 0,.38595.0913.73757.25,1.0625-.0777-.0116-.16906-.0313-.25-.0313-.8876,0-1.59375.70615-1.59375,1.59375 0,.77665.5489,1.44389 1.28125,1.59375 .94559.37313 2.47107.625 4.21875.625 2.87854,0 5.21875-.65512 5.21875-1.46875 0-.0719-.0273-.14961-.0625-.21875 .0903-.18736.125-.4031.125-.625 0-.78898-.61727-1.40625-1.40625-1.40625-.1636,0-.32237.0119-.46875.0625 .10982-.24503.1875-.49536.1875-.78125 0-1.08485-.8839-1.96875-1.96875-1.96875-.35845,0-.67947.11354-.96875.28125-.43099-.70719-1.205-1.1875-2.09375-1.1875v5e-005zm1.67857,4.57589c.0563.0589-.23284-.14081-.16964-.0893-.11404-.003-.0604-.0108-.17641-.0112 .0587-.0462.29176.15174.34598.10044l7e-005,2e-005z" fill="url(#a)"/>
   </g>
   <path d="m408.08928,541.61218c-1.35606,0-2.46875,1.11269-2.46875,2.46875 0,.38595.0913.73757.25,1.0625-.0777-.0116-.16906-.0313-.25-.0313-.8876,0-1.59375.70615-1.59375,1.59375 0,.77665.5489,1.44389 1.28125,1.59375 .94559.37313 2.47107.625 4.21875.625 2.87854,0 5.21875-.65512 5.21875-1.46875 0-.0719-.0273-.14961-.0625-.21875 .0903-.18736.125-.4031.125-.625 0-.78898-.61727-1.40625-1.40625-1.40625-.1636,0-.32237.0119-.46875.0625 .10982-.24503.1875-.49536.1875-.78125 0-1.08485-.8839-1.96875-1.96875-1.96875-.35845,0-.67947.11354-.96875.28125-.43099-.70719-1.205-1.1875-2.09375-1.1875v5e-005zm1.67857,4.57589c.0563.0589-.23284-.14081-.16964-.0893-.11404-.003-.0604-.0108-.17641-.0112 .0587-.0462.29176.15174.34598.10044l7e-005,2e-005z" fill="#28220b" filter="url(#e)" opacity=".3719"/>
   <path d="m407.55357,541.65682c-1.35606,0-2.46875,1.11269-2.46875,2.46875 0,.38595.0913.73757.25,1.0625-.0777-.0116-.16906-.0313-.25-.0313-.8876,0-1.59375.70615-1.59375,1.59375 0,.77665.5489,1.44389 1.28125,1.59375 .94559.37313 2.47107.625 4.21875.625 2.87854,0 5.21875-.65512 5.21875-1.46875 0-.0719-.0273-.14961-.0625-.21875 .0903-.18736.125-.4031.125-.625 0-.78898-.61727-1.40625-1.40625-1.40625-.1636,0-.32237.0119-.46875.0625 .10982-.24503.1875-.49536.1875-.78125 0-1.08485-.8839-1.96875-1.96875-1.96875-.35845,0-.67947.11354-.96875.28125-.43099-.70719-1.205-1.1875-2.09375-1.1875v5e-005zm1.67857,4.57589c.0563.0589-.23284-.14081-.16964-.0893-.11404-.003-.0604-.0108-.17641-.0112 .0587-.0462.29176.15174.34598.10044l7e-005,2e-005z" fill="url(#a)"/>
  </g>
  <g transform="matrix(1.6181 0 0 1.6181 -741.61 -251.82)">
   <path d="m115.62 180.91v0.0313h-89.906v62.844h89.719v0.1875l27.344-15.688 27.344-15.688-27.25-15.844-27.156-15.781-0.0313-0.0313-0.0625-0.0313z" fill="url(#o)"/>
   <path d="m175.62 258.81v0.125h-149.91v62.844h149.72v0.0625l0.0937-0.0625h0.1875v-0.0937l27.062-15.531 27.344-15.656-27.25-15.844-27.25-15.844z" fill="url(#n)"/>
   <path d="m225.09 334.81v0.125h-199.38v62.844h199.19v0.0625l0.0937-0.0625h0.71875v-0.40625l26.531-15.219 27.375-15.656-27.25-15.844-26.656-15.469v-0.25h-0.40625l-0.21875-0.125z" fill="url(#m)"/>
   <path d="m274.84 410.81v0.125h-249.12v62.844h248.94v0.0625l0.0937-0.0625h0.96875v-0.5625l26.281-15.062 27.344-15.656-27.25-15.844-26.375-15.344v-0.375h-0.65625l-0.21875-0.125z" fill="url(#l)"/>
   <path d="m324.84 488.81v0.125h-299.12v62.844h298.94v0.0625l0.0937-0.0625h0.96875v-0.5625l26.281-15.062 27.344-15.656-27.25-15.844-26.375-15.344v-0.375h-0.65625l-0.21875-0.125z" fill="url(#k)"/>
   <path d="m374.84 566.81v0.125h-349.12v62.844h348.94v0.0625l0.0937-0.0625h0.96875v-0.5625l26.281-15.062 27.344-15.656-27.25-15.844-26.375-15.344v-0.375h-0.65625l-0.21875-0.125z" fill="url(#j)"/>
   <path d="m424.84 644.81v0.125h-399.12v62.844h398.94v0.0625l0.0937-0.0625h0.96875v-0.5625l26.281-15.062 27.344-15.656-27.25-15.844-26.375-15.344v-0.375h-0.65625l-0.21875-0.125z" fill="url(#i)"/>
   <text x="37.14286" y="227.01758" fill="#fff" font-family="Bitstream Vera Sans" font-size="40">
    <tspan x="37.14286" y="227.01758">A</tspan>
   </text>
   <text x="37.14286" y="304.9082" fill="#fff" font-family="Bitstream Vera Sans" font-size="40">
    <tspan x="37.14286" y="304.9082">B</tspan>
   </text>
   <text x="37.14286" y="380.88867" fill="#fff" font-family="Bitstream Vera Sans" font-size="40">
    <tspan x="37.14286" y="380.88867">C</tspan>
   </text>
   <text x="37.14286" y="456.9082" fill="#fff" font-family="Bitstream Vera Sans" font-size="40">
    <tspan x="37.14286" y="456.9082">D</tspan>
   </text>
   <text x="37.14286" y="534.9082" fill="#fff" font-family="Bitstream Vera Sans" font-size="40">
    <tspan x="37.14286" y="534.9082">E</tspan>
   </text>
   <text x="37.14286" y="612.9082" fill="#fff" font-family="Bitstream Vera Sans" font-size="40">
    <tspan x="37.14286" y="612.9082">F</tspan>
   </text>
   <text x="37.14286" y="690.88867" fill="#fff" font-family="Bitstream Vera Sans" font-size="40">
    <tspan x="37.14286" y="690.88867">G</tspan>
   </text>
  </g>
 </g>
</svg>
